<?xml version="1.0" encoding="UTF-8" standalone="no"?>
<svg
   version="1.1"
   id="Layer_1"
   x="0px"
   y="0px"
   width="100%"
   viewBox="0 0 500 500"
   enable-background="new 0 0 500 500"
   xml:space="preserve"
   sodipodi:docname="logo.svg"
   inkscape:version="1.3 (0e150ed, 2023-07-21)"
   xmlns:inkscape="http://www.inkscape.org/namespaces/inkscape"
   xmlns:sodipodi="http://sodipodi.sourceforge.net/DTD/sodipodi-0.dtd"
   xmlns="http://www.w3.org/2000/svg"
   xmlns:svg="http://www.w3.org/2000/svg"><defs
   id="defs45" /><sodipodi:namedview
   id="namedview45"
   pagecolor="#ffffff"
   bordercolor="#000000"
   borderopacity="0.25"
   inkscape:showpageshadow="2"
   inkscape:pageopacity="0.0"
   inkscape:pagecheckerboard="0"
   inkscape:deskcolor="#d1d1d1"
   inkscape:zoom="1.4788026"
   inkscape:cx="206.24795"
   inkscape:cy="259.66955"
   inkscape:window-width="1440"
   inkscape:window-height="847"
   inkscape:window-x="0"
   inkscape:window-y="25"
   inkscape:window-maximized="1"
   inkscape:current-layer="Layer_1" />&#10;&#10;<path
   fill="#102531"
   opacity="1.000000"
   stroke="none"
   d=" M210.146454,341.059204   C206.514069,341.279846 202.759628,342.154816 199.289200,341.507324   C196.666550,341.018005 193.020340,339.067657 192.268585,336.915619   C190.603546,332.149078 193.113937,328.401306 197.457718,328.155273   C201.412292,327.931244 201.948318,326.007111 202.080963,322.704956   C202.456009,313.367706 199.684189,305.563538 192.667999,299.079651   C180.488358,287.824097 170.655624,274.700378 163.330002,259.797760   C158.838257,250.660110 156.297668,240.974777 155.969589,230.730270   C155.815933,225.932434 155.104996,221.147598 155.051300,216.352341   C154.882843,201.304977 156.718292,186.429428 163.582840,172.944962   C171.113464,158.152084 180.299347,144.349899 194.608994,134.922607   C200.677292,130.924759 206.498505,126.451958 212.897293,123.077202   C224.890778,116.751778 237.704773,113.748840 251.477097,113.811928   C263.196747,113.865608 274.735260,114.572151 285.775848,118.356621   C305.920868,125.261902 321.851501,138.033539 334.935852,154.723236   C345.662109,168.405136 351.827484,184.041199 354.580536,200.879181   C356.994629,215.644287 356.060791,230.318436 351.511719,244.953079   C347.722015,257.144684 342.986938,268.734039 335.336456,278.770264   C328.918457,287.189667 321.584167,295.023315 313.921753,302.348785   C306.631836,309.318115 308.148621,317.754395 308.249664,326.098846   C308.257477,326.744171 310.137390,327.917023 311.137207,327.906403   C315.863647,327.856262 317.794708,330.466309 317.926208,334.703491   C318.045624,338.551086 314.788879,341.676300 310.504303,341.926086   C307.348053,342.110077 304.173950,341.987732 300.256592,341.860382   C299.402893,353.514923 299.300385,365.310944 299.123657,377.459900   C297.427185,383.261353 293.635437,385.402344 288.122864,385.265533   C286.400940,385.222839 283.940826,385.256195 283.051025,386.302643   C278.288055,391.903992 273.914825,397.836731 268.693298,404.575989   C293.561340,404.575989 317.162384,404.575989 341.221069,404.744171   C348.115601,404.955292 354.552429,404.998260 360.989288,405.041199   C366.369263,409.092773 366.650818,412.231262 361.210541,416.916199   C332.256775,417.014404 304.144104,417.080719 275.563049,417.099487   C232.593460,417.035248 190.092300,417.018555 147.591125,417.001862   C142.483551,413.634064 142.721222,410.582306 149.292267,404.973633   C180.047119,404.753937 210.020493,404.753937 241.355865,404.753937   C236.628693,398.707458 232.841888,394.100189 229.334518,389.289215   C227.217804,386.385742 224.891464,384.923615 221.080887,385.041992   C214.640015,385.242126 211.912598,382.650299 210.748993,375.753571   C210.908524,367.238098 211.005737,359.185883 210.908249,351.136017   C210.867523,347.774475 210.412888,344.417999 210.146454,341.059204  M261.896301,385.106598   C255.727386,385.106598 249.558487,385.106598 242.017807,385.106598   C245.927567,389.415009 248.795486,392.575409 251.821579,396.333923   C252.775574,397.542236 253.729568,398.750580 255.083405,400.465332   C259.002533,395.250153 262.468872,390.637543 266.317627,385.515991   C264.646790,385.359436 263.726013,385.273193 261.896301,385.106598  M240.730042,237.191727   C239.663818,236.625305 238.597610,236.058868 236.890671,235.152054   C236.890671,243.538879 236.683594,251.153488 237.062347,258.738831   C237.139709,260.288025 239.416473,261.727417 241.050323,263.793274   C245.603271,266.780731 250.156235,269.768219 255.431107,272.831512   C268.802765,264.233734 282.191528,255.662308 295.527802,247.010071   C297.551270,245.697311 299.331085,244.009048 301.830414,241.820831   C301.830414,225.307358 301.830414,208.793884 301.830414,191.361908   C293.414032,196.917465 285.792999,201.893524 278.264343,207.005585   C277.547058,207.492661 276.820221,209.067688 277.090698,209.735474   C279.545624,215.796310 278.201508,221.814667 276.500397,228.025970   C272.102356,237.138428 264.482544,241.087982 253.924637,241.385864   C249.631699,240.183777 245.338760,238.981674 240.730042,237.191727  M241.711624,198.229889   C250.347061,192.805740 259.078247,192.511124 268.370117,198.704102   C268.370117,189.134232 268.429016,180.521790 268.298187,171.912231   C268.281158,170.791718 267.573364,169.307297 266.693573,168.642273   C263.660675,166.349777 260.489319,164.207184 257.194489,162.314224   C256.174408,161.728165 254.245010,161.572922 253.327591,162.156631   C249.020081,164.897354 244.920029,167.964127 240.093552,171.059662   C238.839600,171.862671 237.564713,172.634964 236.335052,173.473602   C227.481354,179.511780 218.636856,185.563446 208.957962,191.867950   C208.659973,192.220627 208.102280,192.572617 208.101334,192.926102   C208.058304,208.983307 208.064011,225.040665 208.064011,242.257248   C216.840698,236.429611 224.897354,231.080048 231.062881,226.986191   C231.965057,219.105804 232.662460,213.013992 233.907303,206.618103   C236.262039,203.881622 238.616776,201.145142 241.711624,198.229889  M288.885040,311.257782   C283.957977,311.413391 278.948853,311.748993 276.908600,304.862579   C276.908600,295.306030 276.908600,285.749451 276.908600,275.219604   C270.411621,279.480682 264.638916,282.996857 259.184174,286.951599   C256.203766,289.112427 254.117661,289.360107 250.965881,287.018738   C245.368942,282.860901 239.280960,279.364075 233.086929,275.390930   C233.086929,283.775940 233.086929,291.399780 233.086929,299.494568   C240.415359,299.494568 247.561493,299.178528 254.655060,299.651337   C257.461853,299.838409 260.151703,301.779602 262.920441,303.753967   C262.799133,309.882599 261.594025,311.157654 255.702728,311.191589   C243.875534,311.259766 232.048126,311.289429 219.405426,311.155273   C216.510696,310.603577 215.424683,312.221405 215.291077,314.744354   C215.159225,317.233734 215.389221,319.751709 215.131638,322.222900   C214.679718,326.558258 216.325974,328.002075 220.763824,327.953278   C241.058167,327.730042 261.356018,327.824310 281.652618,327.813568   C294.882904,327.806549 294.787964,327.818298 294.126282,314.698395   C293.959534,311.391846 292.612793,310.619476 288.885040,311.257782  M209.471436,260.087891   C205.479553,257.385254 201.612686,254.467087 197.452713,252.054276   C194.588242,250.392868 193.908966,248.308197 193.940689,245.188553   C194.091400,230.362885 194.008087,215.534836 194.008087,200.584412   C193.307953,200.684372 192.808975,200.670975 192.373535,200.830765   C187.494308,202.621399 183.353561,201.288712 180.450439,197.248550   C177.936752,193.750320 178.639359,189.936798 181.189697,186.584106   C184.208862,182.615112 188.151871,181.934875 192.792465,183.358063   C193.985367,183.723907 195.718155,183.582489 196.768265,182.951157   C202.315414,179.616119 207.745468,176.083557 213.171539,172.551025   C216.253860,170.544357 220.182037,169.231583 219.098267,164.068069   C218.301361,160.271240 218.938644,155.999741 217.481400,152.555557   C215.250580,147.283051 215.177719,142.853577 218.965118,139.355438   C222.118164,136.443207 227.552887,136.423172 231.405975,139.309570   C235.474258,142.357178 236.284225,147.145706 233.909531,152.273880   C233.019226,154.196518 232.746857,156.405289 232.192734,158.483597   C239.104691,155.370529 245.072754,151.839752 250.606186,147.724579   C253.936111,145.248138 256.223236,145.377838 259.643311,147.689377   C277.122223,159.502960 294.783478,171.048492 312.484283,182.528473   C313.847534,183.412628 316.147614,183.609497 317.773529,183.193283   C323.231445,181.796173 328.450745,184.331024 330.073761,189.584320   C331.669617,194.749741 329.132965,199.512497 323.464752,201.054398   C321.204193,201.669312 318.636627,201.155457 315.878906,201.155457   C315.878906,216.193680 315.801208,231.180283 315.947174,246.164673   C315.974976,249.020905 315.119781,250.641403 312.643250,252.124649   C306.375092,255.878754 300.299896,259.958710 294.203430,263.992798   C293.014893,264.779266 291.193054,265.924683 291.166016,266.944427   C290.926941,275.953827 291.027222,284.972229 291.027222,294.434021   C308.246429,285.825928 321.234558,274.107025 330.075592,257.652710   C355.892853,209.603333 331.018280,148.419540 279.067810,131.865402   C244.006577,120.693062 209.550049,134.021973 187.189911,163.177185   C173.327408,181.252380 167.812592,202.224365 170.159851,224.733322   C173.433502,256.126129 189.255829,279.444885 217.577744,293.923096   C217.910126,294.093048 218.457718,293.842041 219.056427,293.769043   C219.056427,287.491882 218.440247,281.252319 219.210388,275.188873   C220.201782,267.383423 217.009155,262.976135 209.471436,260.087891  M254.500000,348.780792   C264.759247,348.780792 275.018463,348.780792 285.445984,348.780792   C285.445984,345.917725 285.445984,343.699280 285.445984,341.352600   C264.878387,341.352600 244.670013,341.352600 224.296753,341.352600   C224.296753,343.908905 224.296753,346.122833 224.296753,348.778076   C234.267029,348.778076 243.883514,348.778076 254.500000,348.780792  M266.499512,363.037170   C252.405060,363.037170 238.310623,363.037170 224.315018,363.037170   C223.467270,370.500305 223.647003,370.746979 230.090317,370.746033   C246.752701,370.743530 263.415192,370.736511 280.077393,370.671143   C286.068848,370.647644 286.798981,369.471222 284.829132,363.039490   C279.125519,363.039490 273.312347,363.039490 266.499512,363.037170  M246.075836,213.871307   C244.013626,220.037979 246.300262,225.241730 251.874207,227.066666   C257.164368,228.798691 262.587891,225.700546 264.181549,220.036255   C265.311523,216.020035 263.044373,210.884811 259.334442,209.057343   C254.793457,206.820465 250.261627,208.269806 246.075836,213.871307  z"
   id="path2" />&#10;&#10;<path
   fill="#112531"
   opacity="1.000000"
   stroke="none"
   d=" M344.720795,113.032745   C344.129272,113.815689 343.093445,114.556000 343.013611,115.388046   C341.993683,126.017601 331.815521,126.930901 324.984985,131.942215   C325.743988,125.129158 325.777954,118.133537 327.436523,111.547005   C329.765900,102.296448 342.442261,95.276466 351.911438,97.009552   C361.745972,98.809509 371.199768,110.470032 369.820740,120.306831   C368.765442,127.834587 365.711304,134.705078 357.664093,137.774597   C354.563202,138.957397 351.556274,140.386627 348.174622,141.356995   C348.257812,136.384628 348.672913,131.758820 349.280975,126.846794   C350.510254,125.783318 351.620392,125.086288 352.568939,124.213631   C355.295868,121.704781 356.301147,118.536018 354.199127,115.411003   C351.951477,112.069511 348.768250,110.264313 344.720795,113.032745  z"
   id="path4" />&#10;&#10;<path
   fill="#132430"
   opacity="1.000000"
   stroke="none"
   d=" M370.623230,319.101135   C373.202240,320.960510 375.677002,322.372955 377.972107,324.033722   C379.418518,325.080353 380.596039,326.498505 381.894165,327.750031   C380.504883,329.084015 379.308868,331.200256 377.688904,331.600494   C373.391815,332.662140 370.737640,334.681824 369.878448,339.233368   C369.564331,340.897491 367.948120,342.315826 366.925903,343.846283   C365.908325,342.636444 364.601959,341.568207 363.926575,340.190613   C361.787598,335.827454 360.109131,331.246887 353.901764,331.284424   C352.968506,331.290070 351.289825,329.107910 351.278381,327.925018   C351.265839,326.627747 352.783020,324.190002 353.637573,324.188232   C360.442932,324.174255 363.532013,320.687988 364.247101,314.264374   C364.333588,313.487152 365.872559,312.190460 366.527466,312.308167   C367.675598,312.514465 369.059418,313.411774 369.611359,314.420715   C370.284119,315.650513 370.199829,317.294434 370.623230,319.101135  z"
   id="path6" />&#10;<path
   fill="#142732"
   opacity="1.000000"
   stroke="none"
   d=" M340.286041,401.869629   C339.259857,401.943970 338.498688,401.898315 337.359802,401.918396   C336.345978,400.319305 335.672241,398.667786 335.081512,396.987030   C333.795349,393.327911 331.667572,390.815674 327.542786,390.030609   C325.914612,389.720734 324.535736,388.101044 323.043335,387.077820   C324.444000,385.707275 325.637878,383.543701 327.283997,383.114502   C332.282440,381.811218 335.127472,379.383331 335.148590,373.852234   C335.153412,372.588348 337.205963,371.332306 338.316071,370.072662   C339.551086,371.392853 341.761444,372.651093 341.849884,374.044067   C342.206268,379.657410 344.810486,382.481537 350.359406,383.198364   C351.642487,383.364105 353.210571,384.918915 353.700073,386.197296   C353.966339,386.892731 352.316559,389.245544 351.402130,389.322632   C344.322662,389.919434 341.797760,394.218689 341.437561,400.611450   C341.415314,401.006256 340.858948,401.370972 340.286041,401.869629  z"
   id="path7" />&#10;<path
   fill="#13252F"
   opacity="1.000000"
   stroke="none"
   d=" M152.809082,308.942017   C150.101349,307.142151 145.333878,309.252533 145.119904,304.473114   C144.903687,299.643433 149.414352,300.831024 152.032501,299.832367   C155.455505,298.526703 156.804321,296.237244 157.065659,292.683167   C157.180969,291.114990 158.518097,289.636688 159.300507,288.117584   C160.659866,289.372925 162.926346,290.449219 163.215744,291.915710   C164.262543,297.220428 166.603973,300.558136 172.379837,301.163727   C173.507629,301.281982 174.424942,303.408020 175.439362,304.607971   C174.141815,305.699463 172.948395,307.550232 171.527908,307.744965   C166.575424,308.424042 163.660995,310.426788 163.359406,315.858459   C163.280426,317.281311 161.187088,318.592316 160.018814,319.954651   C158.999268,318.559448 157.891235,317.219299 156.981033,315.756042   C155.633270,313.589294 154.425873,311.335205 152.809082,308.942017  z"
   id="path8" />&#10;<path
   fill="#112531"
   opacity="1.000000"
   stroke="none"
   d=" M143.334991,246.255112   C150.232880,252.668533 149.239944,257.911896 140.915710,261.078003   C139.252029,261.710785 137.589325,262.346344 135.931931,262.995361   C132.025925,264.525024 127.316910,263.506073 126.444954,260.449341   C125.388329,256.745239 125.070717,252.688370 129.667603,250.824768   C134.021027,249.059845 138.531219,247.681610 143.334991,246.255112  z"
   id="path9" />&#10;<path
   fill="#112530"
   opacity="1.000000"
   stroke="none"
   d=" M364.697754,190.147263   C361.282623,183.785507 362.628052,179.750793 368.603271,177.259430   C370.871490,176.313690 373.055756,175.095840 375.398224,174.414368   C379.559723,173.203781 383.519409,175.391479 384.615112,179.678879   C385.597565,183.523285 383.286285,185.967178 380.032654,187.457550   C376.893280,188.895569 373.707245,190.358810 370.388672,191.224182   C368.763428,191.648010 366.790955,190.740479 364.697754,190.147263  z"
   id="path10" />&#10;<path
   fill="#10222C"
   opacity="1.000000"
   stroke="none"
   d=" M137.738586,212.883911   C141.026398,214.932236 142.701111,217.427170 141.468750,220.997772   C140.216446,224.626205 137.305252,225.937607 133.693420,225.976868   C130.860764,226.007675 128.006592,226.171158 125.199020,225.896729   C121.067314,225.492859 118.365562,223.103882 118.016121,218.904495   C117.720245,215.348862 120.897453,213.091156 125.614487,212.999619   C129.535645,212.923523 133.456207,212.817917 137.738586,212.883911  z"
   id="path11" />&#10;<path
   fill="#112530"
   opacity="1.000000"
   stroke="none"
   d=" M383.660828,260.526123   C380.755432,264.389984 377.362366,264.390228 373.653839,262.760498   C371.555908,261.838531 369.470459,260.887634 367.363983,259.985687   C363.258148,258.227631 361.108734,252.628082 363.812866,249.169327   C365.036102,247.604721 368.165070,246.196869 369.928772,246.653152   C374.185028,247.754303 378.374268,249.617188 382.154266,251.896393   C385.150940,253.703262 385.782196,256.917908 383.660828,260.526123  z"
   id="path12" />&#10;<path
   fill="#132430"
   opacity="1.000000"
   stroke="none"
   d=" M149.998260,372.955627   C144.489624,368.236572 147.110489,361.461365 151.315384,358.181885   C154.441223,355.744080 160.535477,356.793701 163.709473,360.171631   C166.877075,363.542786 166.538284,367.212708 164.473709,370.691132   C162.274460,374.396484 158.829681,376.267273 154.361984,375.010040   C152.954239,374.613922 151.669769,373.779724 149.998260,372.955627  z"
   id="path13" />&#10;<path
   fill="#10222C"
   opacity="1.000000"
   stroke="none"
   d=" M370.849731,213.233368   C375.560699,213.066498 379.895081,213.326508 384.151642,212.866226   C388.157928,212.432999 390.098206,214.533295 390.913574,217.703995   C391.874298,221.439926 389.160095,225.525177 385.591705,225.808853   C381.318390,226.148575 376.888641,226.469223 372.744568,225.669266   C370.657898,225.266464 367.858032,222.551620 367.550873,220.549301   C367.213104,218.347656 369.369476,215.763321 370.849731,213.233368  z"
   id="path14" />&#10;<path
   fill="#13252F"
   opacity="1.000000"
   stroke="none"
   d=" M138.730347,191.365387   C135.821136,190.090179 133.346313,188.723755 130.706116,187.866837   C125.673233,186.233368 125.446297,182.385025 126.169556,178.287811   C126.842323,174.476654 130.284515,172.972260 134.167252,174.545776   C137.062668,175.719177 139.932846,176.974472 142.733521,178.356888   C145.831924,179.886261 148.627609,181.912598 147.422974,185.951447   C146.237228,189.926956 143.956833,192.796265 138.730347,191.365387  z"
   id="path15" />&#10;<path
   fill="#132430"
   opacity="1.000000"
   stroke="none"
   d=" M249.391205,82.519722   C251.345078,79.205635 254.453598,77.723892 257.086945,79.399742   C259.350189,80.840080 260.992035,83.999237 261.825470,86.729042   C262.612488,89.306885 262.352753,92.380699 261.865784,95.113831   C261.493896,97.201050 260.449005,100.332718 258.991577,100.805603   C256.421295,101.639557 253.291260,100.926880 250.436111,100.552536   C249.870117,100.478333 249.092636,99.017639 249.083176,98.188667   C249.024948,93.083946 249.158981,87.977020 249.391205,82.519722  z"
   id="path16" />&#10;<path
   fill="#142732"
   opacity="1.000000"
   stroke="none"
   d=" M210.561371,89.051392   C213.619247,93.515175 216.749252,97.769760 218.677689,102.512878   C219.308762,104.065025 217.292389,108.230347 215.641220,108.815765   C213.123627,109.708374 208.953903,109.565575 207.150482,107.974953   C204.621872,105.744705 202.943054,101.945381 202.117874,98.523712   C200.687454,92.592300 203.720978,89.427460 210.561371,89.051392  z"
   id="path17" />&#10;<path
   fill="#112530"
   opacity="1.000000"
   stroke="none"
   d=" M293.606750,95.729172   C295.004456,93.638313 295.864990,91.276703 297.536652,90.291718   C299.239868,89.288139 302.487885,88.668793 303.721741,89.618752   C305.682617,91.128441 307.908722,94.313202 307.561188,96.374352   C306.871613,100.463722 304.947601,104.567184 302.616364,108.050919   C301.648956,109.496613 298.005219,110.323669 296.164886,109.700500   C294.109650,109.004570 291.571625,106.486549 291.322235,104.500542   C290.985443,101.818207 292.630768,98.886986 293.606750,95.729172  z"
   id="path18" />&#10;<path
   fill="#13252F"
   opacity="1.000000"
   stroke="none"
   d=" M173.121979,122.157204   C174.458115,127.248329 172.304276,130.966415 168.017746,131.569733   C164.625946,132.047119 161.379898,129.595413 160.999924,126.269211   C160.547150,122.305725 163.741974,118.413460 167.649445,118.867790   C169.513397,119.084518 171.205093,120.782806 173.121979,122.157204  z"
   id="path19" />&#10;<path
   fill="#48575D"
   opacity="1.000000"
   stroke="none"
   d=" M147.898804,417.343964   C190.092300,417.018555 232.593460,417.035248 275.557922,417.270691   C276.021240,417.489441 276.021515,417.833496 276.021515,417.833496   C241.389114,417.888153 206.756714,417.963959 172.124283,417.981506   C164.151749,417.985565 156.179092,417.789856 147.898804,417.343964  z"
   id="path20" />&#10;<path
   fill="#142732"
   opacity="1.000000"
   stroke="none"
   d=" M334.997742,306.047974   C335.374786,301.259094 338.238770,299.138580 342.009827,300.299072   C344.336395,301.014984 347.062347,303.851288 347.498566,306.138184   C347.809967,307.770782 344.909515,311.335632 342.918427,311.802124   C339.224426,312.667511 335.046539,312.040924 334.997742,306.047974  z"
   id="path21" />&#10;&#10;<path
   fill="#68B1C5"
   opacity="1.000000"
   stroke="none"
   d=" M345.606964,128.073151   C346.777161,127.710434 347.611359,127.495079 348.766785,127.206375   C348.672913,131.758820 348.257812,136.384628 347.816071,141.436737   C345.342285,142.519714 342.895111,143.176392 339.897461,143.980789   C340.315643,138.041473 342.606049,133.072647 345.606964,128.073151  z"
   id="path23" />&#10;<path
   fill="#516268"
   opacity="1.000000"
   stroke="none"
   d=" M276.486053,417.886475   C276.021515,417.833496 276.021240,417.489441 276.026367,417.318237   C304.144104,417.080719 332.256775,417.014404 360.867981,416.978271   C359.995270,417.327545 358.624420,417.922424 357.252563,417.924805   C330.485321,417.971008 303.717926,417.948151 276.486053,417.886475  z"
   id="path24" />&#10;&#10;&#10;<path
   fill="#8C999F"
   opacity="1.000000"
   stroke="none"
   d=" M341.221069,404.744171   C340.763428,404.575989 340.676056,404.163177 340.858490,404.057129   C347.615936,404.023682 354.190918,404.096252 360.877625,404.605011   C354.552429,404.998260 348.115601,404.955292 341.221069,404.744171  z"
   id="path27" />&#10;&#10;<path
   fill="#64B2CD"
   opacity="1.000000"
   stroke="none"
   d=" M276.825500,305.757446   C278.948853,311.748993 283.957977,311.413391 289.343445,311.706177   C290.292206,320.550232 288.817780,322.107208 280.416046,322.099731   C263.635681,322.084778 246.855331,322.073792 230.074982,322.065613   C220.483322,322.060913 219.314316,320.791931 220.220795,311.334991   C232.048126,311.289429 243.875534,311.259766 255.702728,311.191589   C261.594025,311.157654 262.799133,309.882599 263.052460,303.031738   C266.614563,298.659332 269.732300,298.638794 272.857300,302.830200   C273.797424,304.091187 275.481964,304.797211 276.825500,305.757446  z"
   id="path29" />&#10;&#10;&#10;&#10;&#10;<path
   fill="#62B3CE"
   opacity="1.000000"
   stroke="none"
   d=" M276.855499,227.940155   C281.115082,230.117355 285.043060,232.341080 288.916443,234.656113   C291.879059,236.426834 294.772705,238.313004 297.557922,240.493805   C292.380402,243.931992 287.327637,247.001038 282.306793,250.121429   C273.236511,255.758499 264.185303,261.426239 255.024963,266.616638   C254.857895,257.972656 254.792023,249.793167 254.726151,241.613678   C264.482544,241.087982 272.102356,237.138428 276.855499,227.940155  z"
   id="path34" />&#10;<path
   fill="#286985"
   opacity="1.000000"
   stroke="none"
   d=" M219.813110,311.245117   C219.314316,320.791931 220.483322,322.060913 230.074982,322.065613   C246.855331,322.073792 263.635681,322.084778 280.416046,322.099731   C288.817780,322.107208 290.292206,320.550232 289.770630,311.750977   C292.612793,310.619476 293.959534,311.391846 294.126282,314.698395   C294.787964,327.818298 294.882904,327.806549 281.652618,327.813568   C261.356018,327.824310 241.058167,327.730042 220.763824,327.953278   C216.325974,328.002075 214.679718,326.558258 215.131638,322.222900   C215.389221,319.751709 215.159225,317.233734 215.291077,314.744354   C215.424683,312.221405 216.510696,310.603577 219.813110,311.245117  z"
   id="path35" />&#10;<path
   fill="#61B1CC"
   opacity="1.000000"
   stroke="none"
   d=" M240.419724,170.987061   C240.788956,178.680283 240.832031,186.446091 240.523193,194.854858   C236.365768,198.367050 232.560242,201.236298 228.754715,204.105560   C222.510956,200.176559 216.267181,196.247543 209.906433,191.964676   C218.636856,185.563446 227.481354,179.511780 236.335052,173.473602   C237.564713,172.634964 238.839600,171.862671 240.419724,170.987061  z"
   id="path36" />&#10;<path
   fill="#57A3BF"
   opacity="1.000000"
   stroke="none"
   d=" M254.000000,348.779419   C243.883514,348.778076 234.267029,348.778076 224.296753,348.778076   C224.296753,346.122833 224.296753,343.908905 224.296753,341.352600   C244.670013,341.352600 264.878387,341.352600 285.445984,341.352600   C285.445984,343.699280 285.445984,345.917725 285.445984,348.780792   C275.018463,348.780792 264.759247,348.780792 254.000000,348.779419  z"
   id="path37" />&#10;<path
   fill="#56A1BD"
   opacity="1.000000"
   stroke="none"
   d=" M266.999329,363.038330   C273.312347,363.039490 279.125519,363.039490 284.829132,363.039490   C286.798981,369.471222 286.068848,370.647644 280.077393,370.671143   C263.415192,370.736511 246.752701,370.743530 230.090317,370.746033   C223.647003,370.746979 223.467270,370.500305 224.315018,363.037170   C238.310623,363.037170 252.405060,363.037170 266.999329,363.038330  z"
   id="path38" />&#10;&#10;<path
   fill="#61ADC6"
   opacity="1.000000"
   stroke="none"
   d=" M246.253342,213.527710   C250.261627,208.269806 254.793457,206.820465 259.334442,209.057343   C263.044373,210.884811 265.311523,216.020035 264.181549,220.036255   C262.587891,225.700546 257.164368,228.798691 251.874207,227.066666   C246.300262,225.241730 244.013626,220.037979 246.253342,213.527710  z"
   id="path40" />&#10;<path
   fill="#266D88"
   opacity="1.000000"
   stroke="none"
   d=" M255.070160,272.793579   C254.796982,271.131012 254.884781,269.506378 255.049362,267.481445   C264.185303,261.426239 273.236511,255.758499 282.306793,250.121429   C287.327637,247.001038 292.380402,243.931992 297.783478,240.743713   C299.016541,241.075104 299.884918,241.502563 300.988464,242.212250   C299.331085,244.009048 297.551270,245.697311 295.527802,247.010071   C282.191528,255.662308 268.802765,264.233734 255.070160,272.793579  z"
   id="path41" />&#10;<path
   fill="#5EA8C2"
   opacity="1.000000"
   stroke="none"
   d=" M251.663422,395.735779   C248.795486,392.575409 245.927567,389.415009 242.017807,385.106598   C249.558487,385.106598 255.727386,385.106598 262.219543,385.433105   C258.916290,389.084991 255.289856,392.410370 251.663422,395.735779  z"
   id="path42" />&#10;&#10;<path
   fill="#286985"
   opacity="1.000000"
   stroke="none"
   d=" M251.742493,396.034851   C255.289856,392.410370 258.916290,389.084991 262.674011,385.473267   C263.726013,385.273193 264.646790,385.359436 266.317627,385.515991   C262.468872,390.637543 259.002533,395.250153 255.083405,400.465332   C253.729568,398.750580 252.775574,397.542236 251.742493,396.034851  z"
   id="path44" />&#10;<path
   fill="#286985"
   opacity="1.000000"
   stroke="none"
   d=" M228.957275,204.387421   C232.560242,201.236298 236.365768,198.367050 240.445068,195.327271   C240.783615,195.969421 240.848404,196.782120 240.942352,198.001740   C238.616776,201.145142 236.262039,203.881622 233.633575,206.770142   C231.959869,206.171219 230.559860,205.420258 228.957275,204.387421  z"
   id="path45" />&#10;</svg>
