<?xml version="1.0" standalone="no"?>
<!DOCTYPE svg PUBLIC "-//W3C//DTD SVG 1.1//EN" "http://www.w3.org/Graphics/SVG/1.1/DTD/svg11.dtd" >
<svg xmlns="http://www.w3.org/2000/svg">
<metadata>Generated by IcoMoon</metadata>
<defs>
<font id="icomoon" horiz-adv-x="1024">
<font-face units-per-em="1024" ascent="960" descent="-64" />
<missing-glyph horiz-adv-x="1024" />
<glyph unicode="&#x20;" horiz-adv-x="512" d="" />
<glyph unicode="&#xe900;" d="M430.38 261.511c-7.439-0.452-15.128-2.244-22.236-0.918-5.371 1.002-12.839 4.996-14.378 9.404-3.41 9.762 1.731 17.437 10.627 17.941 8.099 0.459 9.197 4.399 9.468 11.162 0.768 19.123-4.909 35.106-19.278 48.385-24.944 23.051-45.081 49.929-60.084 80.449-9.199 18.714-14.402 38.549-15.074 59.53-0.315 9.826-1.771 19.625-1.881 29.446-0.345 30.817 3.414 61.282 17.473 88.898 15.423 30.296 34.235 58.563 63.542 77.87 12.428 8.188 24.35 17.348 37.454 24.259 24.563 12.954 50.806 19.104 79.011 18.975 24.002-0.11 47.633-1.557 70.244-9.308 41.257-14.142 73.883-40.298 100.68-74.479 21.967-28.021 34.594-60.043 40.232-94.527 4.944-30.239 3.032-60.292-6.285-90.263-7.761-24.968-17.459-48.703-33.127-69.258-13.144-17.243-28.165-33.286-43.857-48.289-14.93-14.273-11.823-31.551-11.616-48.64 0.016-1.322 3.866-3.724 5.914-3.702 9.68 0.103 13.635-5.243 13.904-13.92 0.245-7.88-6.425-14.28-15.2-14.792-6.464-0.377-12.965-0.126-20.987 0.135-1.748-23.868-1.958-48.027-2.32-72.908-3.474-11.881-11.24-16.266-22.53-15.986-3.527 0.087-8.565 0.019-10.387-2.124-9.755-11.472-18.711-23.622-29.405-37.424 50.93 0 99.265 0 148.537-0.344 14.12-0.432 27.303-0.52 40.485-0.608 11.018-8.298 11.595-14.725 0.453-24.32-59.297-0.201-116.872-0.337-175.406-0.375-88.002 0.132-175.044 0.166-262.087 0.2-10.46 6.897-9.974 13.147 3.484 24.634 62.986 0.45 124.371 0.45 188.546 0.45-9.681 12.383-17.437 21.819-24.62 31.672-4.335 5.946-9.099 8.941-16.903 8.698-13.191-0.41-18.777 4.898-21.16 19.023 0.327 17.44 0.526 33.931 0.326 50.417-0.083 6.884-1.014 13.759-1.56 20.637zM536.364 171.302c-12.634 0-25.268 0-40.711 0 8.007-8.824 13.881-15.296 20.078-22.994 1.954-2.475 3.908-4.949 6.68-8.461 8.026 10.681 15.125 20.127 23.008 30.616-3.422 0.321-5.308 0.497-9.055 0.838zM493.015 474.231c-2.184 1.16-4.367 2.32-7.863 4.177 0-17.176-0.424-32.771 0.352-48.306 0.158-3.173 4.821-6.121 8.167-10.351 9.324-6.118 18.649-12.237 29.452-18.51 27.385 17.608 54.805 35.163 82.118 52.882 4.144 2.689 7.789 6.146 12.908 10.628 0 33.82 0 67.639 0 103.34-17.237-11.378-32.845-21.569-48.263-32.038-1.469-0.998-2.958-4.223-2.404-5.591 5.028-12.413 2.275-24.738-1.209-37.459-9.007-18.662-24.613-26.751-46.235-27.361-8.792 2.462-17.584 4.924-27.023 8.59zM495.025 554.025c17.685 11.109 35.567 11.712 54.597-0.971 0 19.599 0.121 37.237-0.147 54.87-0.035 2.295-1.484 5.335-3.286 6.697-6.211 4.695-12.706 9.083-19.454 12.96-2.089 1.2-6.041 1.518-7.919 0.323-8.822-5.613-17.219-11.894-27.103-18.233-2.568-1.645-5.179-3.226-7.697-4.944-18.132-12.366-36.246-24.76-56.068-37.672-0.61-0.722-1.752-1.443-1.754-2.167-0.088-32.885-0.076-65.771-0.076-101.030 17.975 11.935 34.475 22.891 47.102 31.275 1.848 16.139 3.276 28.615 5.825 41.714 4.822 5.604 9.645 11.209 15.983 17.179zM591.637 322.544c-10.091-0.319-20.349-1.006-24.528 13.097 0 19.572 0 39.144 0 60.709-13.306-8.727-25.128-15.928-36.3-24.027-6.104-4.425-10.376-4.933-16.831-0.138-11.463 8.515-23.931 15.677-36.616 23.814 0-17.173 0-32.786 0-49.364 15.009 0 29.644 0.647 44.172-0.321 5.748-0.383 11.257-4.359 16.928-8.402-0.248-12.551-2.716-15.163-14.782-15.232-24.222-0.14-48.445-0.2-74.337 0.074-5.928 1.13-8.153-2.183-8.426-7.35-0.27-5.098 0.201-10.255-0.327-15.316-0.926-8.879 2.446-11.836 11.535-11.736 41.563 0.457 83.133 0.264 124.7 0.286 27.096 0.014 26.901-0.010 25.546 26.86-0.341 6.772-3.1 8.354-10.734 7.046zM428.998 427.34c-8.175 5.535-16.095 11.511-24.614 16.453-5.866 3.403-7.258 7.672-7.193 14.061 0.309 30.363 0.138 60.731 0.138 91.349-1.434-0.205-2.456-0.177-3.348-0.505-9.993-3.667-18.473-0.938-24.419 7.336-5.148 7.164-3.709 14.974 1.514 21.841 6.183 8.128 14.259 9.522 23.762 6.607 2.443-0.749 5.992-0.46 8.142 0.833 11.361 6.83 22.481 14.065 33.594 21.299 6.313 4.11 14.357 6.798 12.138 17.373-1.632 7.776-0.327 16.524-3.311 23.578-4.569 10.798-4.718 19.87 3.039 27.034 6.457 5.964 17.588 6.005 25.479 0.094 8.332-6.242 9.991-16.048 5.127-26.551-1.823-3.938-2.381-8.461-3.516-12.718 14.156 6.376 26.378 13.607 37.711 22.034 6.82 5.072 11.504 4.806 18.508 0.072 35.797-24.194 71.967-47.839 108.218-71.35 2.792-1.811 7.503-2.214 10.832-1.362 11.178 2.861 21.867-2.33 25.191-13.089 3.268-10.579-1.927-20.333-13.535-23.491-4.63-1.259-9.888-0.207-15.536-0.207 0-30.798-0.159-61.491 0.14-92.179 0.057-5.85-1.695-9.168-6.766-12.206-12.837-7.688-25.279-16.044-37.765-24.306-2.434-1.611-6.165-3.957-6.221-6.045-0.49-18.451-0.284-36.921-0.284-56.299 35.265 17.629 61.865 41.63 79.971 75.328 52.874 98.405 1.931 223.71-104.464 257.612-71.805 22.881-142.372-4.417-188.166-64.127-28.39-37.018-39.685-79.969-34.878-126.067 6.704-64.292 39.109-112.049 97.112-141.701 0.681-0.348 1.802 0.166 3.028 0.316 0 12.856-1.262 25.634 0.315 38.052 2.030 15.986-4.508 25.012-19.945 30.927zM521.216 245.697c21.011 0 42.022 0 63.377 0 0 5.864 0 10.407 0 15.213-42.122 0-83.509 0-125.234 0 0-5.235 0-9.769 0-15.207 20.419 0 40.114 0 61.856-0.006zM545.791 216.5c-28.865 0-57.731 0-86.394 0-1.736-15.285-1.368-15.79 11.828-15.788 34.125 0.005 68.249 0.020 102.374 0.153 12.27 0.048 13.766 2.457 9.732 15.63-11.681 0-23.586 0-37.539 0.005zM503.963 521.992c-4.223-12.629 0.46-23.287 11.875-27.024 10.834-3.547 21.942 2.798 25.205 14.398 2.314 8.225-2.329 18.742-9.927 22.485-9.3 4.581-18.581 1.613-27.154-9.859z" />
<glyph unicode="&#xe901;" d="M705.988 728.509c-1.211-1.603-3.333-3.12-3.496-4.824-2.089-21.769-22.934-23.64-36.923-33.903 1.554 13.953 1.624 28.28 5.021 41.769 4.771 18.945 30.732 33.322 50.125 29.773 20.141-3.686 39.502-27.567 36.678-47.713-2.161-15.417-8.416-29.488-24.897-35.774-6.351-2.422-12.509-5.349-19.434-7.337 0.17 10.183 1.020 19.657 2.266 29.717 2.518 2.178 4.791 3.606 6.734 5.393 5.585 5.138 7.644 11.628 3.339 18.028-4.603 6.843-11.122 10.54-19.412 4.871z" />
<glyph unicode="&#xe902;" d="M697.884 131.428c-48.335 0-96.67 0-147.6 0 10.694 13.802 19.65 25.952 29.405 37.424 1.822 2.143 6.861 2.211 10.387 2.124 11.29-0.28 19.055 4.105 22.843 15.945 0.465 0.682 1.089 0.78 1.089 0.78 2.224-9.306 6.839-12.456 16.6-8.506 2.937 1.189 9.138-1.689 11.753-4.589 4.513-5.005 8.908-11.065 10.669-17.425 5.397-19.495 21.181-20.139 37.649-21.087 2.568 0.818 4.127 0.725 5.686 0.631 0.606-0.952 1.212-1.904 1.58-3.654-0.238-0.798-0.059-1.643-0.059-1.643z" />
<glyph unicode="&#xe903;" d="M759.036 306.481c5.282-3.808 10.35-6.701 15.051-10.102 2.962-2.144 5.374-5.048 8.032-7.611-2.845-2.732-5.295-7.066-8.612-7.886-8.8-2.174-14.236-6.311-15.996-15.632-0.643-3.408-3.953-6.313-6.047-9.447-2.084 2.478-4.759 4.665-6.143 7.487-4.381 8.936-7.818 18.317-20.531 18.24-1.911-0.012-5.349 4.458-5.373 6.88-0.026 2.657 3.082 7.649 4.832 7.653 13.937 0.029 20.264 7.168 21.728 20.324 0.177 1.592 3.329 4.247 4.67 4.006 2.351-0.422 5.185-2.26 6.316-4.326 1.378-2.519 1.205-5.885 2.072-9.586z" />
<glyph unicode="&#xe904;" d="M696.906 136.971c-2.102-0.152-3.66-0.059-5.993-0.1-2.076 3.275-3.456 6.657-4.666 10.099-2.634 7.494-6.992 12.639-15.439 14.247-3.335 0.635-6.158 3.952-9.215 6.047 2.869 2.807 5.314 7.238 8.685 8.117 10.237 2.669 16.063 7.641 16.107 18.969 0.010 2.588 4.213 5.161 6.487 7.741 2.529-2.704 7.056-5.281 7.237-8.133 0.73-11.496 6.063-17.28 17.428-18.748 2.628-0.339 5.839-3.524 6.842-6.142 0.545-1.424-2.833-6.243-4.706-6.401-14.499-1.222-19.67-10.027-20.407-23.119-0.046-0.809-1.185-1.556-2.358-2.577z" />
<glyph unicode="&#xe905;" d="M312.953 327.287c-5.545 3.686-15.309-0.636-15.747 9.152-0.443 9.891 8.795 7.459 14.157 9.504 7.010 2.674 9.773 7.363 10.308 14.642 0.236 3.212 2.975 6.239 4.577 9.35 2.784-2.571 7.426-4.775 8.018-7.779 2.144-10.864 6.939-17.7 18.768-18.94 2.31-0.242 4.188-4.596 6.266-7.054-2.657-2.235-5.102-6.026-8.011-6.425-10.143-1.391-16.111-5.492-16.729-16.616-0.162-2.914-4.449-5.599-6.842-8.389-2.088 2.857-4.357 5.602-6.221 8.599-2.76 4.437-5.233 9.054-8.544 13.955z" />
<glyph unicode="&#xe906;" d="M293.55 455.67c14.127-13.135 12.093-23.873-4.955-30.357-3.407-1.296-6.812-2.598-10.207-3.927-8-3.133-17.644-1.046-19.429 5.214-2.164 7.586-2.814 15.894 6.6 19.711 8.916 3.615 18.153 6.437 27.991 9.359z" />
<glyph unicode="&#xe907;" d="M746.901 570.578c-6.994 13.029-4.239 21.292 7.998 26.394 4.645 1.937 9.119 4.431 13.916 5.827 8.523 2.479 16.632-2.001 18.876-10.782 2.012-7.873-2.721-12.878-9.385-15.931-6.429-2.945-12.954-5.942-19.751-7.714-3.328-0.868-7.368 0.991-11.655 2.206z" />
<glyph unicode="&#xe908;" d="M282.089 524.014c6.733-4.195 10.163-9.305 7.639-16.617-2.565-7.431-8.527-10.117-15.924-10.197-5.801-0.063-11.647-0.398-17.397 0.164-8.462 0.827-13.995 5.72-14.711 14.32-0.606 7.282 5.901 11.906 15.561 12.093 8.031 0.156 16.060 0.372 24.83 0.237z" />
<glyph unicode="&#xe909;" d="M785.737 426.443c-5.95-7.913-12.899-7.914-20.494-4.576-4.297 1.888-8.568 3.836-12.882 5.683-8.409 3.6-12.811 15.068-7.273 22.152 2.505 3.204 8.913 6.088 12.525 5.153 8.717-2.255 17.296-6.070 25.038-10.738 6.137-3.7 7.43-10.284 3.085-17.674z" />
<glyph unicode="&#xe90a;" d="M307.196 196.187c-11.282 9.665-5.914 23.54 2.697 30.257 6.402 4.993 18.883 2.843 25.383-4.075 6.487-6.904 5.793-14.42 1.565-21.544-4.504-7.589-11.559-11.42-20.709-8.845-2.883 0.811-5.514 2.52-8.937 4.207z" />
<glyph unicode="&#xe90b;" d="M759.5 523.298c9.648 0.342 18.525-0.191 27.242 0.752 8.205 0.887 12.179-3.414 13.848-9.908 1.968-7.651-3.591-16.018-10.899-16.599-8.752-0.696-17.824-1.352-26.311 0.286-4.274 0.825-10.008 6.385-10.637 10.486-0.692 4.509 3.724 9.802 6.756 14.983z" />
<glyph unicode="&#xe90c;" d="M284.12 568.084c-5.958 2.612-11.027 5.41-16.434 7.165-10.307 3.345-10.772 11.227-9.291 19.618 1.378 7.805 8.427 10.886 16.379 7.664 5.93-2.403 11.808-4.974 17.544-7.805 6.346-3.132 12.071-7.282 9.604-15.554-2.428-8.142-7.099-14.018-17.803-11.088z" />
<glyph unicode="&#xe90d;" d="M510.753 791c4.002 6.787 10.368 9.822 15.761 6.39 4.635-2.95 7.998-9.42 9.704-15.010 1.612-5.279 1.080-11.575 0.083-17.172-0.762-4.275-2.902-10.688-5.886-11.657-5.264-1.708-11.674-0.248-17.522 0.518-1.159 0.152-2.751 3.143-2.771 4.841-0.119 10.454 0.155 20.913 0.631 32.090z" />
<glyph unicode="&#xe90e;" d="M431.23 777.623c6.263-9.142 12.673-17.855 16.622-27.569 1.292-3.179-2.837-11.709-6.219-12.908-5.156-1.828-13.696-1.536-17.389 1.722-5.179 4.568-8.617 12.349-10.307 19.356-2.93 12.148 3.283 18.629 17.292 19.399z" />
<glyph unicode="&#xe90f;" d="M601.307 763.947c2.863 4.282 4.625 9.119 8.048 11.136 3.488 2.055 10.14 3.324 12.667 1.378 4.016-3.092 8.575-9.614 7.863-13.835-1.412-8.375-5.353-16.779-10.127-23.914-1.981-2.961-9.444-4.655-13.213-3.378-4.209 1.425-9.407 6.582-9.918 10.65-0.69 5.493 2.68 11.497 4.679 17.964z" />
<glyph unicode="&#xe910;" d="M354.554 709.822c2.736-10.427-1.675-18.041-10.453-19.277-6.946-0.978-13.594 4.043-14.372 10.855-0.927 8.117 5.616 16.089 13.618 15.158 3.817-0.444 7.282-3.922 11.208-6.737z" />
<glyph unicode="&#xe911;" d="M302.897 105.28c86.412 0.666 173.455 0.632 261.446 0.15 0.949-0.448 0.949-1.153 0.949-1.153-70.927-0.112-141.854-0.267-212.782-0.303-16.328-0.008-32.656 0.392-49.614 1.306z" />
<glyph unicode="&#xe912;" d="M686.075 333.214c0.772 9.808 6.638 14.15 14.361 11.774 4.765-1.466 10.348-7.275 11.241-11.959 0.638-3.344-5.302-10.644-9.38-11.6-7.565-1.772-16.122-0.489-16.222 11.784z" />
<glyph unicode="&#xe913;" d="M707.803 697.706c2.397 0.743 4.105 1.184 6.471 1.775-0.192-9.323-1.042-18.797-1.947-29.144-5.066-2.218-10.078-3.563-16.217-5.21 0.856 12.164 5.547 22.34 11.693 32.579z" />
<glyph unicode="&#xe914;" d="M566.243 104.168c-0.951 0.109-0.952 0.813-0.941 1.164 57.585 0.486 115.16 0.622 173.756 0.696-1.787-0.715-4.595-1.934-7.404-1.939-54.819-0.095-109.639-0.048-165.41 0.078z" />
<glyph unicode="&#xe915;" d="M698.821 131.084c-0.937 0.344-1.116 1.19-0.743 1.407 13.839 0.068 27.305-0.080 40.999-1.122-12.954-0.805-26.137-0.717-40.257-0.285z" />
<glyph unicode="&#xe916;" d="M566.939 333.809c4.349-12.271 14.607-11.583 25.637-12.183 1.943-18.113-1.077-21.301-18.283-21.286-34.366 0.031-68.732 0.053-103.098 0.070-19.644 0.010-22.038 2.609-20.181 21.976 24.222 0.093 48.445 0.154 72.667 0.294 12.065 0.069 14.533 2.681 15.052 16.711 7.295 8.955 13.68 8.997 20.080 0.413 1.925-2.583 5.375-4.028 8.127-5.995z" />
<glyph unicode="&#xe917;" d="M567 493.179c8.724-4.459 16.768-9.013 24.701-13.754 6.067-3.626 11.994-7.489 17.698-11.956-10.604-7.041-20.952-13.327-31.234-19.717-18.576-11.545-37.113-23.152-55.873-33.782-0.342 17.703-0.477 34.454-0.612 51.206 19.981 1.077 35.586 9.165 45.321 28.003z" />
<glyph unicode="&#xe918;" d="M450.177 322.57c-1.022-19.552 1.373-22.151 21.016-22.16 34.366-0.017 68.732-0.039 103.098-0.070 17.207-0.015 20.226 3.173 19.158 21.194 5.821 2.317 8.579 0.736 8.92-6.036 1.355-26.87 1.55-26.845-25.546-26.86-41.567-0.022-83.137 0.171-124.7-0.286-9.089-0.1-12.46 2.857-11.535 11.736 0.528 5.061 0.056 10.218 0.327 15.316 0.274 5.167 2.498 8.48 9.261 7.166z" />
<glyph unicode="&#xe919;" d="M492.38 609.818c0.756-15.756 0.844-31.66 0.212-48.881-8.514-7.193-16.308-13.069-24.102-18.945-12.787 8.047-25.574 16.093-38.601 24.865 17.88 13.11 35.993 25.504 54.126 37.87 2.518 1.718 5.129 3.299 8.365 5.092z" />
<glyph unicode="&#xe91a;" d="M520.192 245.7c-20.719 0.003-40.413 0.003-60.832 0.003 0 5.438 0 9.972 0 15.207 41.724 0 83.111 0 125.234 0 0-4.806 0-9.349 0-15.213-21.356 0-42.366 0-64.401 0.003z" />
<glyph unicode="&#xe91b;" d="M546.815 216.498c12.929-0.002 24.834-0.002 36.515-0.002 4.034-13.172 2.539-15.581-9.732-15.63-34.124-0.134-68.249-0.148-102.374-0.153-13.196-0.002-13.564 0.503-11.828 15.788 28.663 0 57.528 0 87.417-0.002z" />
<glyph unicode="&#xe91c;" d="M504.327 522.695c8.209 10.768 17.49 13.736 26.79 9.155 7.598-3.743 12.241-14.26 9.927-22.485-3.264-11.6-14.371-17.945-25.205-14.398-11.415 3.737-16.098 14.395-11.512 27.728z" />
<glyph unicode="&#xe91d;" d="M522.384 401.319c-0.559 3.405-0.38 6.732-0.043 10.879 18.71 12.401 37.247 24.009 55.823 35.553 10.283 6.391 20.631 12.676 31.696 19.206 2.525-0.679 4.304-1.554 6.564-3.008-3.394-3.68-7.039-7.137-11.183-9.826-27.313-17.72-54.733-35.274-82.857-52.805z" />
<glyph unicode="&#xe91e;" d="M515.407 149.533c-5.874 6.472-11.747 12.945-19.754 21.769 15.443 0 28.077 0 41.373-0.669-6.765-7.479-14.192-14.289-21.619-21.1z" />
<glyph unicode="&#xe91f;" d="M493.338 473.629c0.165-17.312 0.007-34.022-0.289-51.715-2.724 2.068-7.387 5.016-7.546 8.189-0.776 15.535-0.352 31.13-0.352 48.306 3.496-1.857 5.679-3.017 8.186-4.779z" />
<glyph unicode="&#xe920;" d="M515.569 148.921c7.265 7.423 14.692 14.233 22.388 21.63 2.155 0.41 4.040 0.233 7.462-0.087-7.882-10.489-14.981-19.936-23.008-30.616-2.773 3.512-4.726 5.987-6.842 9.074z" />
<glyph unicode="&#xe921;" d="M468.904 541.415c7.379 6.453 15.173 12.33 23.527 18.555 0.693-1.315 0.826-2.98 1.018-5.477-4.763-6.438-9.585-12.042-14.968-17.958-3.428 1.227-6.295 2.765-9.577 4.88z" />
<glyph unicode="&#xe922;" glyph-name="info" d="M512 919.040c-259.906 0-471.040-211.134-471.040-471.040s211.134-471.040 471.040-471.040c259.906 0 471.040 211.134 471.040 471.040s-211.134 471.040-471.040 471.040zM512 878.080c237.769 0 430.080-192.311 430.080-430.080s-192.311-430.080-430.080-430.080c-237.769 0-430.080 192.311-430.080 430.080s192.311 430.080 430.080 430.080zM512 734.72c-33.932 0-61.44-27.508-61.44-61.44v0c0-33.932 27.508-61.44 61.44-61.44v0c33.932 0 61.44 27.508 61.44 61.44v0c0 33.932-27.508 61.44-61.44 61.44v0zM430.080 529.92v-40.96h40.96v-266.24h-40.96v-40.96h163.84v40.96h-40.96v307.2h-122.88z" />
<glyph unicode="&#xe923;" glyph-name="logo" d="M430.38 261.511c-7.439-0.452-15.128-2.244-22.236-0.918-5.371 1.002-12.839 4.996-14.378 9.404-3.41 9.762 1.731 17.437 10.627 17.941 8.099 0.459 9.197 4.399 9.468 11.162 0.768 19.123-4.909 35.106-19.278 48.385-24.944 23.051-45.081 49.929-60.084 80.449-9.199 18.714-14.402 38.549-15.074 59.53-0.315 9.826-1.771 19.625-1.881 29.446-0.345 30.817 3.414 61.282 17.473 88.898 15.423 30.296 34.235 58.563 63.542 77.87 12.428 8.188 24.35 17.348 37.454 24.259 24.563 12.954 50.806 19.104 79.011 18.975 24.002-0.11 47.633-1.557 70.244-9.308 41.257-14.142 73.883-40.298 100.68-74.479 21.967-28.021 34.594-60.043 40.232-94.527 4.944-30.239 3.032-60.292-6.285-90.263-7.761-24.968-17.459-48.703-33.127-69.258-13.144-17.243-28.165-33.286-43.857-48.289-14.93-14.273-11.823-31.551-11.616-48.64 0.016-1.322 3.866-3.724 5.914-3.702 9.68 0.103 13.635-5.243 13.904-13.92 0.245-7.88-6.425-14.28-15.2-14.792-6.464-0.377-12.965-0.126-20.987 0.135-1.748-23.868-1.958-48.027-2.32-72.908-3.474-11.881-11.24-16.266-22.53-15.986-3.527 0.087-8.565 0.019-10.387-2.124-9.755-11.472-18.711-23.622-29.405-37.424 50.93 0 99.265 0 148.537-0.344 14.12-0.432 27.303-0.52 40.485-0.608 11.018-8.298 11.595-14.725 0.453-24.32-59.297-0.201-116.872-0.337-175.406-0.375-88.002 0.132-175.044 0.166-262.087 0.2-10.46 6.897-9.974 13.147 3.484 24.634 62.986 0.45 124.371 0.45 188.546 0.45-9.681 12.383-17.437 21.819-24.62 31.672-4.335 5.946-9.099 8.941-16.903 8.698-13.191-0.41-18.777 4.898-21.16 19.023 0.327 17.44 0.526 33.931 0.326 50.417-0.083 6.884-1.014 13.759-1.56 20.637zM536.364 171.302c-12.634 0-25.268 0-40.711 0 8.007-8.824 13.881-15.296 20.078-22.994 1.954-2.475 3.908-4.949 6.68-8.461 8.026 10.681 15.125 20.127 23.008 30.616-3.422 0.321-5.308 0.497-9.055 0.838zM493.015 474.231c-2.184 1.16-4.367 2.32-7.863 4.177 0-17.176-0.424-32.771 0.352-48.306 0.158-3.173 4.821-6.121 8.167-10.351 9.324-6.118 18.649-12.237 29.452-18.51 27.385 17.608 54.805 35.163 82.118 52.882 4.144 2.689 7.789 6.146 12.908 10.628 0 33.82 0 67.639 0 103.34-17.237-11.378-32.845-21.569-48.263-32.038-1.469-0.998-2.958-4.223-2.404-5.591 5.028-12.413 2.275-24.738-1.209-37.459-9.007-18.662-24.613-26.751-46.235-27.361-8.792 2.462-17.584 4.924-27.023 8.59zM495.025 554.025c17.685 11.109 35.567 11.712 54.597-0.971 0 19.599 0.121 37.237-0.147 54.87-0.035 2.295-1.484 5.335-3.286 6.697-6.211 4.695-12.706 9.083-19.454 12.96-2.089 1.2-6.041 1.518-7.919 0.323-8.822-5.613-17.219-11.894-27.103-18.233-2.568-1.645-5.179-3.226-7.697-4.944-18.132-12.366-36.246-24.76-56.068-37.672-0.61-0.722-1.752-1.443-1.754-2.167-0.088-32.885-0.076-65.771-0.076-101.030 17.975 11.935 34.475 22.891 47.102 31.275 1.848 16.139 3.276 28.615 5.825 41.714 4.822 5.604 9.645 11.209 15.983 17.179zM591.637 322.544c-10.091-0.319-20.349-1.006-24.528 13.097 0 19.572 0 39.144 0 60.709-13.306-8.727-25.128-15.928-36.3-24.027-6.104-4.425-10.376-4.933-16.831-0.138-11.463 8.515-23.931 15.677-36.616 23.814 0-17.173 0-32.786 0-49.364 15.009 0 29.644 0.647 44.172-0.321 5.748-0.383 11.257-4.359 16.928-8.402-0.248-12.551-2.716-15.163-14.782-15.232-24.222-0.14-48.445-0.2-74.337 0.074-5.928 1.13-8.153-2.183-8.426-7.35-0.27-5.098 0.201-10.255-0.327-15.316-0.926-8.879 2.446-11.836 11.535-11.736 41.563 0.457 83.133 0.264 124.7 0.286 27.096 0.014 26.901-0.010 25.546 26.86-0.341 6.772-3.1 8.354-10.734 7.046zM428.998 427.34c-8.175 5.535-16.095 11.511-24.614 16.453-5.866 3.403-7.258 7.672-7.193 14.061 0.309 30.363 0.138 60.731 0.138 91.349-1.434-0.205-2.456-0.177-3.348-0.505-9.993-3.667-18.473-0.938-24.419 7.336-5.148 7.164-3.709 14.974 1.514 21.841 6.183 8.128 14.259 9.522 23.762 6.607 2.443-0.749 5.992-0.46 8.142 0.833 11.361 6.83 22.481 14.065 33.594 21.299 6.313 4.11 14.357 6.798 12.138 17.373-1.632 7.776-0.327 16.524-3.311 23.578-4.569 10.798-4.718 19.87 3.039 27.034 6.457 5.964 17.588 6.005 25.479 0.094 8.332-6.242 9.991-16.048 5.127-26.551-1.823-3.938-2.381-8.461-3.516-12.718 14.156 6.376 26.378 13.607 37.711 22.034 6.82 5.072 11.504 4.806 18.508 0.072 35.797-24.194 71.967-47.839 108.218-71.35 2.792-1.811 7.503-2.214 10.832-1.362 11.178 2.861 21.867-2.33 25.191-13.089 3.268-10.579-1.927-20.333-13.535-23.491-4.63-1.259-9.888-0.207-15.536-0.207 0-30.798-0.159-61.491 0.14-92.179 0.057-5.85-1.695-9.168-6.766-12.206-12.837-7.688-25.279-16.044-37.765-24.306-2.434-1.611-6.165-3.957-6.221-6.045-0.49-18.451-0.284-36.921-0.284-56.299 35.265 17.629 61.865 41.63 79.971 75.328 52.874 98.405 1.931 223.71-104.464 257.612-71.805 22.881-142.372-4.417-188.166-64.127-28.39-37.018-39.685-79.969-34.878-126.067 6.704-64.292 39.109-112.049 97.112-141.701 0.681-0.348 1.802 0.166 3.028 0.316 0 12.856-1.262 25.634 0.315 38.052 2.030 15.986-4.508 25.012-19.945 30.927zM521.216 245.697c21.011 0 42.022 0 63.377 0 0 5.864 0 10.407 0 15.213-42.122 0-83.509 0-125.234 0 0-5.235 0-9.769 0-15.207 20.419 0 40.114 0 61.856-0.006zM545.791 216.5c-28.865 0-57.731 0-86.394 0-1.736-15.285-1.368-15.79 11.828-15.788 34.125 0.005 68.249 0.020 102.374 0.153 12.27 0.048 13.766 2.457 9.732 15.63-11.681 0-23.586 0-37.539 0.005zM503.963 521.992c-4.223-12.629 0.46-23.287 11.875-27.024 10.834-3.547 21.942 2.798 25.205 14.398 2.314 8.225-2.329 18.742-9.927 22.485-9.3 4.581-18.581 1.613-27.154-9.859zM705.988 728.509c-1.211-1.603-3.333-3.12-3.496-4.824-2.089-21.769-22.934-23.64-36.923-33.903 1.554 13.953 1.624 28.28 5.021 41.769 4.771 18.945 30.732 33.322 50.125 29.773 20.141-3.686 39.502-27.567 36.678-47.713-2.161-15.417-8.416-29.488-24.897-35.774-6.351-2.422-12.509-5.349-19.434-7.337 0.17 10.183 1.020 19.657 2.266 29.717 2.518 2.178 4.791 3.606 6.734 5.393 5.585 5.138 7.644 11.628 3.339 18.028-4.603 6.843-11.122 10.54-19.412 4.871zM697.884 131.428c-48.335 0-96.67 0-147.6 0 10.694 13.802 19.65 25.952 29.405 37.424 1.822 2.143 6.861 2.211 10.387 2.124 11.29-0.28 19.055 4.105 22.843 15.945 0.465 0.682 1.089 0.78 1.089 0.78 2.224-9.306 6.839-12.456 16.6-8.506 2.937 1.189 9.138-1.689 11.753-4.589 4.513-5.005 8.908-11.065 10.669-17.425 5.397-19.495 21.181-20.139 37.649-21.087 2.568 0.818 4.127 0.725 5.686 0.631 0.606-0.952 1.212-1.904 1.58-3.654-0.238-0.798-0.059-1.643-0.059-1.643zM759.036 306.481c5.282-3.808 10.35-6.701 15.051-10.102 2.962-2.144 5.374-5.048 8.032-7.611-2.845-2.732-5.295-7.066-8.612-7.886-8.8-2.174-14.236-6.311-15.996-15.632-0.643-3.408-3.953-6.313-6.047-9.447-2.084 2.478-4.759 4.665-6.143 7.487-4.381 8.936-7.818 18.317-20.531 18.24-1.911-0.012-5.349 4.458-5.373 6.88-0.026 2.657 3.082 7.649 4.832 7.653 13.937 0.029 20.264 7.168 21.728 20.324 0.177 1.592 3.329 4.247 4.67 4.006 2.351-0.422 5.185-2.26 6.316-4.326 1.378-2.519 1.205-5.885 2.072-9.586zM696.906 136.971c-2.102-0.152-3.66-0.059-5.993-0.1-2.076 3.275-3.456 6.657-4.666 10.099-2.634 7.494-6.992 12.639-15.439 14.247-3.335 0.635-6.158 3.952-9.215 6.047 2.869 2.807 5.314 7.238 8.685 8.117 10.237 2.669 16.063 7.641 16.107 18.969 0.010 2.588 4.213 5.161 6.487 7.741 2.529-2.704 7.056-5.281 7.237-8.133 0.73-11.496 6.063-17.28 17.428-18.748 2.628-0.339 5.839-3.524 6.842-6.142 0.545-1.424-2.833-6.243-4.706-6.401-14.499-1.222-19.67-10.027-20.407-23.119-0.046-0.809-1.185-1.556-2.358-2.577zM312.953 327.287c-5.545 3.686-15.309-0.636-15.747 9.152-0.443 9.891 8.795 7.459 14.157 9.504 7.010 2.674 9.773 7.363 10.308 14.642 0.236 3.212 2.975 6.239 4.577 9.35 2.784-2.571 7.426-4.775 8.018-7.779 2.144-10.864 6.939-17.7 18.768-18.94 2.31-0.242 4.188-4.596 6.266-7.054-2.657-2.235-5.102-6.026-8.011-6.425-10.143-1.391-16.111-5.492-16.729-16.616-0.162-2.914-4.449-5.599-6.842-8.389-2.088 2.857-4.357 5.602-6.221 8.599-2.76 4.437-5.233 9.054-8.544 13.955zM293.55 455.67c14.127-13.135 12.093-23.873-4.955-30.357-3.407-1.296-6.812-2.598-10.207-3.927-8-3.133-17.644-1.046-19.429 5.214-2.164 7.586-2.814 15.894 6.6 19.711 8.916 3.615 18.153 6.437 27.991 9.359zM746.901 570.578c-6.994 13.029-4.239 21.292 7.998 26.394 4.645 1.937 9.119 4.431 13.916 5.827 8.523 2.479 16.632-2.001 18.876-10.782 2.012-7.873-2.721-12.878-9.385-15.931-6.429-2.945-12.954-5.942-19.751-7.714-3.328-0.868-7.368 0.991-11.655 2.206zM282.089 524.014c6.733-4.195 10.163-9.305 7.639-16.617-2.565-7.431-8.527-10.117-15.924-10.197-5.801-0.063-11.647-0.398-17.397 0.164-8.462 0.827-13.995 5.72-14.711 14.32-0.606 7.282 5.901 11.906 15.561 12.093 8.031 0.156 16.060 0.372 24.83 0.237zM785.737 426.443c-5.95-7.913-12.899-7.914-20.494-4.576-4.297 1.888-8.568 3.836-12.882 5.683-8.409 3.6-12.811 15.068-7.273 22.152 2.505 3.204 8.913 6.088 12.525 5.153 8.717-2.255 17.296-6.070 25.038-10.738 6.137-3.7 7.43-10.284 3.085-17.674zM307.196 196.187c-11.282 9.665-5.914 23.54 2.697 30.257 6.402 4.993 18.883 2.843 25.383-4.075 6.487-6.904 5.793-14.42 1.565-21.544-4.504-7.589-11.559-11.42-20.709-8.845-2.883 0.811-5.514 2.52-8.937 4.207zM759.5 523.298c9.648 0.342 18.525-0.191 27.242 0.752 8.205 0.887 12.179-3.414 13.848-9.908 1.968-7.651-3.591-16.018-10.899-16.599-8.752-0.696-17.824-1.352-26.311 0.286-4.274 0.825-10.008 6.385-10.637 10.486-0.692 4.509 3.724 9.802 6.756 14.983zM284.12 568.084c-5.958 2.612-11.027 5.41-16.434 7.165-10.307 3.345-10.772 11.227-9.291 19.618 1.378 7.805 8.427 10.886 16.379 7.664 5.93-2.403 11.808-4.974 17.544-7.805 6.346-3.132 12.071-7.282 9.604-15.554-2.428-8.142-7.099-14.018-17.803-11.088zM510.753 791c4.002 6.787 10.368 9.822 15.761 6.39 4.635-2.95 7.998-9.42 9.704-15.010 1.612-5.279 1.080-11.575 0.083-17.172-0.762-4.275-2.902-10.688-5.886-11.657-5.264-1.708-11.674-0.248-17.522 0.518-1.159 0.152-2.751 3.143-2.771 4.841-0.119 10.454 0.155 20.913 0.631 32.090zM431.23 777.623c6.263-9.142 12.673-17.855 16.622-27.569 1.292-3.179-2.837-11.709-6.219-12.908-5.156-1.828-13.696-1.536-17.389 1.722-5.179 4.568-8.617 12.349-10.307 19.356-2.93 12.148 3.283 18.629 17.292 19.399zM601.307 763.947c2.863 4.282 4.625 9.119 8.048 11.136 3.488 2.055 10.14 3.324 12.667 1.378 4.016-3.092 8.575-9.614 7.863-13.835-1.412-8.375-5.353-16.779-10.127-23.914-1.981-2.961-9.444-4.655-13.213-3.378-4.209 1.425-9.407 6.582-9.918 10.65-0.69 5.493 2.68 11.497 4.679 17.964zM354.554 709.822c2.736-10.427-1.675-18.041-10.453-19.277-6.946-0.978-13.594 4.043-14.372 10.855-0.927 8.117 5.616 16.089 13.618 15.158 3.817-0.444 7.282-3.922 11.208-6.737zM302.897 105.28c86.412 0.666 173.455 0.632 261.446 0.15 0.949-0.448 0.949-1.153 0.949-1.153-70.927-0.112-141.854-0.267-212.782-0.303-16.328-0.008-32.656 0.392-49.614 1.306zM686.075 333.214c0.772 9.808 6.638 14.15 14.361 11.774 4.765-1.466 10.348-7.275 11.241-11.959 0.638-3.344-5.302-10.644-9.38-11.6-7.565-1.772-16.122-0.489-16.222 11.784zM566.243 104.168c-0.951 0.109-0.952 0.813-0.941 1.164 57.585 0.486 115.16 0.622 173.756 0.696-1.787-0.715-4.595-1.934-7.404-1.939-54.819-0.095-109.639-0.048-165.41 0.078zM698.821 131.084c-0.937 0.344-1.116 1.19-0.743 1.407 13.839 0.068 27.305-0.080 40.999-1.122-12.954-0.805-26.137-0.717-40.257-0.285z" />
<glyph unicode="&#xe924;" glyph-name="home" d="M1024 352l-192 192v288h-128v-160l-192 192-512-512v-32h128v-320h320v192h128v-192h320v320h128z" />
<glyph unicode="&#xe953;" glyph-name="calendar" d="M320 576h128v-128h-128zM512 576h128v-128h-128zM704 576h128v-128h-128zM128 192h128v-128h-128zM320 192h128v-128h-128zM512 192h128v-128h-128zM320 384h128v-128h-128zM512 384h128v-128h-128zM704 384h128v-128h-128zM128 384h128v-128h-128zM832 960v-64h-128v64h-448v-64h-128v64h-128v-1024h960v1024h-128zM896 0h-832v704h832v-704z" />
<glyph unicode="&#xe971;" glyph-name="user" d="M576 253.388v52.78c70.498 39.728 128 138.772 128 237.832 0 159.058 0 288-192 288s-192-128.942-192-288c0-99.060 57.502-198.104 128-237.832v-52.78c-217.102-17.748-384-124.42-384-253.388h896c0 128.968-166.898 235.64-384 253.388z" />
<glyph unicode="&#xea91;" glyph-name="facebook" d="M928 960h-832c-52.8 0-96-43.2-96-96v-832c0-52.8 43.2-96 96-96h416v448h-128v128h128v64c0 105.8 86.2 192 192 192h128v-128h-128c-35.2 0-64-28.8-64-64v-64h192l-32-128h-160v-448h288c52.8 0 96 43.2 96 96v832c0 52.8-43.2 96-96 96z" />
<glyph unicode="&#xea92;" glyph-name="instagram" d="M512 867.8c136.8 0 153-0.6 206.8-3 50-2.2 77-10.6 95-17.6 23.8-9.2 41-20.4 58.8-38.2 18-18 29-35 38.4-58.8 7-18 15.4-45.2 17.6-95 2.4-54 3-70.2 3-206.8s-0.6-153-3-206.8c-2.2-50-10.6-77-17.6-95-9.2-23.8-20.4-41-38.2-58.8-18-18-35-29-58.8-38.4-18-7-45.2-15.4-95-17.6-54-2.4-70.2-3-206.8-3s-153 0.6-206.8 3c-50 2.2-77 10.6-95 17.6-23.8 9.2-41 20.4-58.8 38.2-18 18-29 35-38.4 58.8-7 18-15.4 45.2-17.6 95-2.4 54-3 70.2-3 206.8s0.6 153 3 206.8c2.2 50 10.6 77 17.6 95 9.2 23.8 20.4 41 38.2 58.8 18 18 35 29 58.8 38.4 18 7 45.2 15.4 95 17.6 53.8 2.4 70 3 206.8 3zM512 960c-139 0-156.4-0.6-211-3-54.4-2.4-91.8-11.2-124.2-23.8-33.8-13.2-62.4-30.6-90.8-59.2-28.6-28.4-46-57-59.2-90.6-12.6-32.6-21.4-69.8-23.8-124.2-2.4-54.8-3-72.2-3-211.2s0.6-156.4 3-211c2.4-54.4 11.2-91.8 23.8-124.2 13.2-33.8 30.6-62.4 59.2-90.8 28.4-28.4 57-46 90.6-59 32.6-12.6 69.8-21.4 124.2-23.8 54.6-2.4 72-3 211-3s156.4 0.6 211 3c54.4 2.4 91.8 11.2 124.2 23.8 33.6 13 62.2 30.6 90.6 59s46 57 59 90.6c12.6 32.6 21.4 69.8 23.8 124.2 2.4 54.6 3 72 3 211s-0.6 156.4-3 211c-2.4 54.4-11.2 91.8-23.8 124.2-12.6 34-30 62.6-58.6 91-28.4 28.4-57 46-90.6 59-32.6 12.6-69.8 21.4-124.2 23.8-54.8 2.6-72.2 3.2-211.2 3.2v0zM512 711c-145.2 0-263-117.8-263-263s117.8-263 263-263 263 117.8 263 263c0 145.2-117.8 263-263 263zM512 277.4c-94.2 0-170.6 76.4-170.6 170.6s76.4 170.6 170.6 170.6c94.2 0 170.6-76.4 170.6-170.6s-76.4-170.6-170.6-170.6zM846.8 721.4c0-33.91-27.49-61.4-61.4-61.4s-61.4 27.49-61.4 61.4c0 33.91 27.49 61.4 61.4 61.4s61.4-27.49 61.4-61.4z" />
<glyph unicode="&#xea96;" glyph-name="twitter" d="M1024 733.6c-37.6-16.8-78.2-28-120.6-33 43.4 26 76.6 67.2 92.4 116.2-40.6-24-85.6-41.6-133.4-51-38.4 40.8-93 66.2-153.4 66.2-116 0-210-94-210-210 0-16.4 1.8-32.4 5.4-47.8-174.6 8.8-329.4 92.4-433 219.6-18-31-28.4-67.2-28.4-105.6 0-72.8 37-137.2 93.4-174.8-34.4 1-66.8 10.6-95.2 26.2 0-0.8 0-1.8 0-2.6 0-101.8 72.4-186.8 168.6-206-17.6-4.8-36.2-7.4-55.4-7.4-13.6 0-26.6 1.4-39.6 3.8 26.8-83.4 104.4-144.2 196.2-146-72-56.4-162.4-90-261-90-17 0-33.6 1-50.2 3 93.2-59.8 203.6-94.4 322.2-94.4 386.4 0 597.8 320.2 597.8 597.8 0 9.2-0.2 18.2-0.6 27.2 41 29.4 76.6 66.4 104.8 108.6z" />
<glyph unicode="&#xea9d;" glyph-name="youtube" d="M1013.8 652.8c0 0-10 70.6-40.8 101.6-39 40.8-82.6 41-102.6 43.4-143.2 10.4-358.2 10.4-358.2 10.4h-0.4c0 0-215 0-358.2-10.4-20-2.4-63.6-2.6-102.6-43.4-30.8-31-40.6-101.6-40.6-101.6s-10.2-82.8-10.2-165.8v-77.6c0-82.8 10.2-165.8 10.2-165.8s10-70.6 40.6-101.6c39-40.8 90.2-39.4 113-43.8 82-7.8 348.2-10.2 348.2-10.2s215.2 0.4 358.4 10.6c20 2.4 63.6 2.6 102.6 43.4 30.8 31 40.8 101.6 40.8 101.6s10.2 82.8 10.2 165.8v77.6c-0.2 82.8-10.4 165.8-10.4 165.8zM406.2 315.2v287.8l276.6-144.4-276.6-143.4z" />
</font>
</defs>
</svg>
