<?xml version="1.0" encoding="UTF-8" standalone="no"?>
<!-- Created with Inkscape (http://www.inkscape.org/) -->

<svg
   width="152.51352mm"
   height="152.51344mm"
   viewBox="0 0 152.51352 152.51344"
   version="1.1"
   id="svg1"
   xml:space="preserve"
   inkscape:export-filename="bitmap.svg"
   inkscape:export-xdpi="44.625496"
   inkscape:export-ydpi="44.625496"
   xmlns:inkscape="http://www.inkscape.org/namespaces/inkscape"
   xmlns:sodipodi="http://sodipodi.sourceforge.net/DTD/sodipodi-0.dtd"
   xmlns="http://www.w3.org/2000/svg"
   xmlns:svg="http://www.w3.org/2000/svg"><sodipodi:namedview
     id="namedview1"
     pagecolor="#ffffff"
     bordercolor="#000000"
     borderopacity="0.25"
     inkscape:showpageshadow="2"
     inkscape:pageopacity="0.0"
     inkscape:pagecheckerboard="0"
     inkscape:deskcolor="#d1d1d1"
     inkscape:document-units="mm" /><defs
     id="defs1" /><g
     inkscape:label="Layer 1"
     inkscape:groupmode="layer"
     id="layer1"
     transform="translate(-0.764394,-0.38218822)"><g
       id="g8"
       transform="translate(-16.054054,-17.583012)"><path
         id="path1"
         style="fill:#000000;stroke-width:0.264583"
         d="M 94.320656,17.975369 A 76.256752,76.256752 0 0 0 16.829262,92.94702 l 12.265401,0.20516 a 64.025093,64.025093 0 0 1 -0.03721,-0.66456 L 93.075251,93.45758 29.059004,92.38685 A 64.025093,64.025093 0 0 1 94.120668,29.440819 64.025093,64.025093 0 0 1 157.09201,94.47768 64.025093,64.025093 0 0 1 92.079966,157.47486 64.025093,64.025093 0 0 1 29.100348,93.25295 L 16.827195,93.06691 A 76.256752,76.256752 0 0 0 91.889797,170.46942 76.256752,76.256752 0 0 0 169.32228,95.43731 76.256752,76.256752 0 0 0 94.320656,17.975369 Z" /><rect
         style="fill:#000000;stroke-width:0.264583"
         id="rect3"
         width="14.907335"
         height="132.63707"
         x="84.474907"
         y="28.667953" /><rect
         style="fill:#000000;stroke-width:0.275692"
         id="rect8-0"
         width="19.545429"
         height="62.835384"
         x="122.96718"
         y="8.9808559"
         transform="matrix(0.74540059,0.6666168,-0.71465633,0.69947575,0,0)" /><rect
         style="fill:#000000;stroke-width:0.274576"
         id="rect8-0-7"
         width="19.446136"
         height="62.645611"
         x="-5.8344636"
         y="-196.14467"
         transform="matrix(-0.68350449,0.7299463,-0.71571393,-0.69839356,0,0)" /></g></g></svg>
